<svg id="Capa_1" data-name="Capa 1" xmlns="http://www.w3.org/2000/svg" xmlns:xlink="http://www.w3.org/1999/xlink" viewBox="0 0 296.83 124.47"><defs><style>.cls-1{fill-rule:evenodd;fill:url(#linear-gradient);}</style><linearGradient id="linear-gradient" x1="362.42" y1="359.55" x2="363.75" y2="259.87" gradientUnits="userSpaceOnUse"><stop offset="0" stop-color="#f52736"/><stop offset="1" stop-color="#fff"/></linearGradient></defs><title>The Trend of Music Illustration Vector Material 3 [Converted]</title><path class="cls-1" d="M291.58,336.85h28.26c.12,0,.22.07.22.16v5.86c0,.09-.1.16-.22.16H291.58c-.13,0-.22-.07-.22-.16V337c0-.09.09-.16.22-.16Zm0-66.78h28.26c.12,0,.22.07.22.16v5.86c0,.09-.1.16-.22.16H291.58c-.13,0-.22-.07-.22-.16v-5.86c0-.09.09-.16.22-.16Zm0,26.71h28.26c.12,0,.22.07.22.16v5.86c0,.09-.1.16-.22.16H291.58c-.13,0-.22-.07-.22-.16v-5.86c0-.09.09-.16.22-.16Zm0,11.45h28.26c.12,0,.22.07.22.16v5.86c0,.08-.1.16-.22.16H291.58c-.13,0-.22-.08-.22-.16v-5.86c0-.09.09-.16.22-.16Zm-38.31-17.17h28.27c.12,0,.22.07.22.15v5.87c0,.09-.1.15-.22.15H253.27c-.12,0-.22-.06-.22-.15v-5.87c0-.08.1-.15.22-.15Zm153.21-11.15h28.27c.12,0,.22.07.22.16v5.86c0,.08-.1.15-.22.15H406.48c-.12,0-.22-.07-.22-.15v-5.86c0-.09.1-.16.22-.16Zm0,15h28.27c.12,0,.22.07.22.15v5.86c0,.09-.1.16-.22.16H406.48c-.12,0-.22-.07-.22-.16V295c0-.08.1-.15.22-.15Zm0,22.89h28.27c.12,0,.22.07.22.16v5.86c0,.09-.1.16-.22.16H406.48c-.12,0-.22-.07-.22-.16v-5.86c0-.09.1-.16.22-.16Zm-153.21,0h28.27c.12,0,.22.07.22.16v5.86c0,.09-.1.16-.22.16H253.27c-.12,0-.22-.07-.22-.16v-5.86c0-.09.1-.16.22-.16Zm229.82-91.58h28.27c.12,0,.22.07.22.15v5.87c0,.08-.1.15-.22.15H483.09c-.12,0-.22-.07-.22-.15v-5.87c0-.08.1-.15.22-.15Zm0,64.87h28.27c.12,0,.22.07.22.15v5.87c0,.09-.1.15-.22.15H483.09c-.12,0-.22-.06-.22-.15v-5.87c0-.08.1-.15.22-.15Zm0,26.71h28.27c.12,0,.22.07.22.16v5.86c0,.09-.1.16-.22.16H483.09c-.12,0-.22-.07-.22-.16v-5.86c0-.09.1-.16.22-.16Zm-153.21-29h28.27c.12,0,.22.07.22.15v5.87c0,.08-.1.15-.22.15H329.88c-.12,0-.22-.07-.22-.15V288.9c0-.08.1-.15.22-.15Zm0,29h28.27c.12,0,.22.07.22.16v5.86c0,.09-.1.16-.22.16H329.88c-.12,0-.22-.07-.22-.16v-5.86c0-.09.1-.16.22-.16ZM215,256.72h28.27c.12,0,.22.06.22.15v5.86c0,.09-.1.16-.22.16H215c-.12,0-.22-.07-.22-.16v-5.86c0-.09.1-.15.22-.15Zm0,7.63h28.27c.12,0,.22.07.22.15v5.87c0,.08-.1.15-.22.15H215c-.12,0-.22-.07-.22-.15V264.5c0-.08.1-.15.22-.15Zm0,7.63h28.27c.12,0,.22.07.22.15V278c0,.08-.1.15-.22.15H215c-.12,0-.22-.07-.22-.15v-5.87c0-.08.1-.15.22-.15Zm0,19.08h28.27c.12,0,.22.07.22.15v5.87c0,.09-.1.15-.22.15H215c-.12,0-.22-.06-.22-.15v-5.87c0-.08.1-.15.22-.15ZM368.18,274.6h28.27c.12,0,.22.06.22.15v5.86c0,.09-.1.15-.22.15H368.18c-.12,0-.22-.06-.22-.15v-5.86c0-.09.1-.15.22-.15Zm0,31.73h28.27c.12,0,.22.06.22.15v5.86c0,.09-.1.16-.22.16H368.18c-.12,0-.22-.07-.22-.16v-5.86c0-.09.1-.15.22-.15Zm0,11.44h28.27c.12,0,.22.07.22.16v5.86c0,.09-.1.16-.22.16H368.18c-.12,0-.22-.07-.22-.16v-5.86c0-.09.1-.16.22-.16Zm-153.21,0h28.27c.12,0,.22.07.22.16v5.86c0,.09-.1.16-.22.16H215c-.12,0-.22-.07-.22-.16v-5.86c0-.09.1-.16.22-.16Zm229.82-60.6h28.26c.13,0,.22.07.22.15v5.86c0,.09-.09.16-.22.16H444.79c-.12,0-.22-.07-.22-.16v-5.86c0-.08.1-.15.22-.15Zm0,11.45h28.26c.13,0,.22.06.22.15v5.86c0,.09-.09.16-.22.16H444.79c-.12,0-.22-.07-.22-.16v-5.86c0-.09.1-.15.22-.15Zm0,15.26h28.26c.13,0,.22.07.22.15v5.87c0,.08-.09.15-.22.15H444.79c-.12,0-.22-.07-.22-.15V284c0-.08.1-.15.22-.15Zm0,22.45h28.26c.13,0,.22.06.22.15v5.86c0,.09-.09.16-.22.16H444.79c-.12,0-.22-.07-.22-.16v-5.86c0-.09.1-.15.22-.15Zm0,11.44h28.26c.13,0,.22.07.22.16v5.86c0,.09-.09.16-.22.16H444.79c-.12,0-.22-.07-.22-.16v-5.86c0-.09.1-.16.22-.16Zm-153.21,0h28.26c.12,0,.22.07.22.16v5.86c0,.09-.1.16-.22.16H291.58c-.13,0-.22-.07-.22-.16v-5.86c0-.09.09-.16.22-.16Zm114.9,10.78h28.27c.12,0,.22.07.22.15v5.87c0,.08-.1.15-.22.15H406.48c-.12,0-.22-.07-.22-.15V328.7c0-.08.1-.15.22-.15Zm-153.21,0h28.27c.12,0,.22.07.22.15v5.87c0,.08-.1.15-.22.15H253.27c-.12,0-.22-.07-.22-.15V328.7c0-.08.1-.15.22-.15Zm229.82-19.08h28.27c.12,0,.22.07.22.15v5.86c0,.09-.1.16-.22.16H483.09c-.12,0-.22-.07-.22-.16v-5.86c0-.08.1-.15.22-.15Zm0-7.64h28.27c.12,0,.22.07.22.16v5.87c0,.08-.1.15-.22.15H483.09c-.12,0-.22-.07-.22-.15V302c0-.09.1-.16.22-.16Zm0,26.72h28.27c.12,0,.22.07.22.15v5.87c0,.08-.1.15-.22.15H483.09c-.12,0-.22-.07-.22-.15V328.7c0-.08.1-.15.22-.15Zm-153.21,0h28.27c.12,0,.22.07.22.15v5.87c0,.08-.1.15-.22.15H329.88c-.12,0-.22-.07-.22-.15V328.7c0-.08.1-.15.22-.15Zm38.3,0h28.27c.12,0,.22.07.22.15v5.87c0,.08-.1.15-.22.15H368.18c-.12,0-.22-.07-.22-.15V328.7c0-.08.1-.15.22-.15Zm-153.21,0h28.27c.12,0,.22.07.22.15v5.87c0,.08-.1.15-.22.15H215c-.12,0-.22-.07-.22-.15V328.7c0-.08.1-.15.22-.15Zm229.82,0h28.26c.13,0,.22.07.22.15v5.87c0,.08-.09.15-.22.15H444.79c-.12,0-.22-.07-.22-.15V328.7c0-.08.1-.15.22-.15Zm-153.21,0h28.26c.12,0,.22.07.22.15v5.87c0,.08-.1.15-.22.15H291.58c-.13,0-.22-.07-.22-.15V328.7c0-.08.09-.15.22-.15Zm114.9,15.94h28.27c.12,0,.22.07.22.15v5.87c0,.08-.1.15-.22.15H406.48c-.12,0-.22-.07-.22-.15v-5.87c0-.08.1-.15.22-.15Zm0-7.64h28.27c.12,0,.22.07.22.16v5.86c0,.09-.1.16-.22.16H406.48c-.12,0-.22-.07-.22-.16V337c0-.09.1-.16.22-.16Zm-153.21,7.64h28.27c.12,0,.22.07.22.15v5.87c0,.08-.1.15-.22.15H253.27c-.12,0-.22-.07-.22-.15v-5.87c0-.08.1-.15.22-.15Zm0-7.64h28.27c.12,0,.22.07.22.16v5.86c0,.09-.1.16-.22.16H253.27c-.12,0-.22-.07-.22-.16V337c0-.09.1-.16.22-.16Zm229.82,7.64h28.27c.12,0,.22.07.22.15v5.87c0,.08-.1.15-.22.15H483.09c-.12,0-.22-.07-.22-.15v-5.87c0-.08.1-.15.22-.15Zm0-7.64h28.27c.12,0,.22.07.22.16v5.86c0,.09-.1.16-.22.16H483.09c-.12,0-.22-.07-.22-.16V337c0-.09.1-.16.22-.16Zm-153.21,7.64h28.27c.12,0,.22.07.22.15v5.87c0,.08-.1.15-.22.15H329.88c-.12,0-.22-.07-.22-.15v-5.87c0-.08.1-.15.22-.15Zm0-7.64h28.27c.12,0,.22.07.22.16v5.86c0,.09-.1.16-.22.16H329.88c-.12,0-.22-.07-.22-.16V337c0-.09.1-.16.22-.16Zm38.3,7.64h28.27c.12,0,.22.07.22.15v5.87c0,.08-.1.15-.22.15H368.18c-.12,0-.22-.07-.22-.15v-5.87c0-.08.1-.15.22-.15Zm0-7.64h28.27c.12,0,.22.07.22.16v5.86c0,.09-.1.16-.22.16H368.18c-.12,0-.22-.07-.22-.16V337c0-.09.1-.16.22-.16ZM215,344.49h28.27c.12,0,.22.07.22.15v5.87c0,.08-.1.15-.22.15H215c-.12,0-.22-.07-.22-.15v-5.87c0-.08.1-.15.22-.15Zm0-7.64h28.27c.12,0,.22.07.22.16v5.86c0,.09-.1.16-.22.16H215c-.12,0-.22-.07-.22-.16V337c0-.09.1-.16.22-.16Zm229.82,7.64h28.26c.13,0,.22.07.22.15v5.87c0,.08-.09.15-.22.15H444.79c-.12,0-.22-.07-.22-.15v-5.87c0-.08.1-.15.22-.15Zm0-7.64h28.26c.13,0,.22.07.22.16v5.86c0,.09-.09.16-.22.16H444.79c-.12,0-.22-.07-.22-.16V337c0-.09.1-.16.22-.16Zm-153.21,7.64h28.26c.12,0,.22.07.22.15v5.87c0,.08-.1.15-.22.15H291.58c-.13,0-.22-.07-.22-.15v-5.87C291.36,344.56,291.45,344.49,291.58,344.49Z" transform="translate(-214.75 -226.19)"/></svg>